<?xml version="1.0" encoding="utf-8"?>
<!-- Generator: Adobe Illustrator 25.1.0, SVG Export Plug-In . SVG Version: 6.00 Build 0)  -->
<svg version="1.1" id="Layer_1" xmlns="http://www.w3.org/2000/svg" xmlns:xlink="http://www.w3.org/1999/xlink" x="0px" y="0px"
	 viewBox="0 0 150 100" style="enable-background:new 0 0 150 100;" xml:space="preserve">
<style type="text/css">
	.st0{fill:#F3C046;}
	.st1{fill:#614D97;}
	.st2{fill:#57A2D6;}
	.st3{fill:#FF9800;}
	.st4{fill:#98C156;}
	.st5{fill:#FFFFFF;}
	.st6{fill:#5B5B5D;}
	.st7{fill:#F2F2F2;}
	.st8{fill:#204167;}
	.st9{fill:#1B3854;}
	.st10{fill:#182C44;}
	.st11{opacity:0.2;fill:#5272B2;enable-background:new    ;}
	.st12{fill:#263238;}
	.st13{fill:#9AC256;}
	.st14{opacity:0.25;fill:#204167;enable-background:new    ;}
	.st15{fill:#ECAB42;}
	.st16{fill:#FADD49;}
	.st17{fill:#D7833C;}
	.st18{fill:#F4D864;}
	.st19{fill:#F1E38E;}
	.st20{fill:#306D49;}
	.st21{fill:#424143;}
</style>
<g id="Layer_1_1_">
	<g id="Group_681" transform="translate(797.234 409.725) rotate(90)">
		<g id="Group_680" transform="translate(5.275 5.228)">
			<g id="Group_679" transform="translate(0)">
				<g id="Group_671">
					<g id="Group_670">
						<path id="Path_555" class="st0" d="M-317.9,675.1c-9.2-26-37.8-39.7-63.8-30.4c-26,9.2-39.7,37.8-30.4,63.8
							c0,0.1,0.1,0.2,0.1,0.3c0.4,1.1,0.8,2.1,1.2,3.1c11,25.3,40.5,36.9,65.8,25.9C-320.9,727.3-309,699.9-317.9,675.1
							L-317.9,675.1z M-352.3,727.3c-18.6,6.7-39.1-2.2-47-20.3c-0.3-0.8-0.6-1.5-0.9-2.3c-7-19.5,3.2-40.9,22.7-47.9
							s40.9,3.2,47.9,22.7C-322.7,698.8-332.8,720.3-352.3,727.3L-352.3,727.3z"/>
					</g>
				</g>
				<g id="Group_673" transform="translate(2.279 0.023)">
					<g id="Group_672">
						<path id="Path_556" class="st1" d="M-403,680.8l-11.9-3.7c6.4-20.3,24.9-34.4,46.2-35.1l0.4,12.5
							C-384.3,655-398.2,665.5-403,680.8L-403,680.8z"/>
					</g>
				</g>
				<g id="Group_675" transform="translate(0 35.1)">
					<g id="Group_674">
						<path id="Path_557" class="st2" d="M-399.3,671.8l-11.5,5c-0.4-1-0.9-2.1-1.2-3.1c-3.7-10.2-3.9-21.4-0.7-31.7l11.9,3.7
							c-2.4,7.8-2.3,16.1,0.5,23.8C-399.9,670.3-399.6,671.1-399.3,671.8z"/>
					</g>
				</g>
				<g id="Group_677" transform="translate(4.162 64.958)">
					<g id="Group_676">
						<path id="Path_558" class="st3" d="M-407.2,659.4c-3.2-3.7-5.8-7.9-7.8-12.4l11.5-5c1.5,3.4,3.4,6.5,5.8,9.3L-407.2,659.4z"/>
					</g>
				</g>
			</g>
		</g>
	</g>
	<g>
		<g id="XMLID_1_">
			<g>
				<path class="st4" d="M51.8,23.8c-0.1,0.2-0.2,0.3-0.3,0.5l0,0c-0.2,0.3-0.4,0.5-0.6,0.8c-1.4,1.9-3.2,3.8-5.2,5.6
					c-3.3,2.9-4.8,6-5.2,8.9l0,0c-0.4,2.6,0,5,0.7,7c0.9,2.9,2.4,4.9,2.4,5l0,0c-15,7.2-28.9-2.6-30.5-4.5
					c1.8-6.9-0.3-12.9-1.2-18.2c-1.1-6.2-0.6-11.6,9-17c2.2-1.2,4.7-1.6,7.4-1.6c0.7-0.4,3.3-1.7,6.4-0.9c1.7,0.4,2.8,1.3,3.5,1.8
					c1.3,0,3.2,0.1,5.4,0.5C48.9,12.5,57.4,14.6,51.8,23.8z"/>
			</g>
			<path id="XMLID_4_" class="st5" d="M38.8,14.7c0.7,3-1.1,6-4.1,6.7c-3,0.7-6-1.1-6.8-4.1c-0.7-3,1.1-6,4.1-6.7S38,11.7,38.8,14.7
				z"/>
			<path id="XMLID_3_" class="st6" d="M38.9,14.7c0.5,2.1-0.8,4.2-2.9,4.7c-2.1,0.5-4.2-0.8-4.7-2.9s0.8-4.2,2.9-4.7
				C36.2,11.3,38.4,12.6,38.9,14.7z"/>
			<path class="st6" d="M51.8,23.8c-0.1,0.2-0.2,0.3-0.3,0.5l0,0c-0.2,0.3-0.3,0.5-0.5,0.8h-0.1c-0.8,0.3-1.6,0.5-2.5,0.7
				c-0.2,0-0.3,0-0.5,0.1c-1.8,0.2-3.7,0-5.1-1v-0.1c1.8,0.6,3.6,0.5,5.4,0.1c0.4-0.1,0.9-0.2,1.3-0.3C50.3,24.3,51,24,51.8,23.8
				C51.7,23.8,51.8,23.8,51.8,23.8z"/>
			<path id="XMLID_2_" class="st5" d="M37.5,14.4c0.2,0.7-0.2,1.3-0.9,1.5c-0.7,0.2-1.3-0.2-1.5-0.9s0.2-1.3,0.9-1.5
				C36.7,13.4,37.4,13.8,37.5,14.4z"/>
		</g>
		<polygon class="st7" points="40.8,42.9 13.8,41.9 13.2,45.6 27.9,49.6 41.5,47.2 		"/>
		<g>
			<g>
				<path class="st8" d="M22.2,95.1c0.5-2.4,1.1-8.8,0.3-11.2c-1.1-3.1-3.8-3.4-6.2-6.4c-0.3,1.7-0.3,4.1,0,5.1l-0.9,14.3l6.6,0.6
					L22.2,95.1L22.2,95.1z"/>
			</g>
			<g>
				<path class="st9" d="M22.2,95.1c0.5-2.4,1.1-8.8,0.3-11.2c-1.1-3.1-3.8-3.4-6.2-6.4c-0.3,1.7-0.3,4.1,0,5.1l-0.9,14.3l6.6,0.6
					L22.2,95.1L22.2,95.1z"/>
			</g>
			<g>
				<path class="st8" d="M17.2,97.8L17,89.4c-0.2-0.4-0.2-1.5,0-2.2c1.6,1.3,3.2,2.9,3.9,4.2c0.5,1,0.5,2.5,0.1,3.5l0,0
					C21,94.9,20.3,97.7,17.2,97.8z"/>
			</g>
			<g>
				<path class="st10" d="M22.6,96.6c0-0.4-0.1-0.7-0.3-1.1h-7.7c-0.4,0.6-1,1.1-1.8,1.4c-0.4,0.2-0.9,0.3-1.4,0.5
					c-0.6,0.1-1.2,0.2-1.6,0.6c-0.4,0.3-0.5,0.7-0.5,1.1c0.2,0.2,0.4,0.5,0.8,0.6c0.6,0.2,1.4,0.3,2,0.3c0.4,0,0.8,0.1,1.2,0.1
					c1.1-0.1,2.1-0.2,3.2-0.2c1.7,0,3.7,0.3,5.4-0.1c0.1,0,0.2-0.1,0.2-0.1c0.4-0.2,0.4-0.5,0.4-0.9c0.1-0.4,0.1-0.8,0.1-1.3
					C22.7,97.2,22.7,96.9,22.6,96.6z"/>
				<path class="st10" d="M10.1,99.6c0.6,0.2,1.4,0.3,2,0.3c0.4,0,0.8,0.1,1.2,0.1c1.1-0.1,2.1-0.2,3.2-0.2c1.7,0,3.7,0.3,5.4-0.1
					c0.1,0,0.2-0.1,0.2-0.1c0.4-0.2,0.4-0.5,0.4-0.9l0,0C22,99,21.1,99,20.5,99c-1.8,0.1-3.5-0.1-5.3,0.1c-1.6,0.2-3.2,0.3-4.8-0.1
					c-0.6-0.2-1.1-0.4-1.1-0.7c-0.1,0.2-0.2,0.4-0.2,0.6C9.5,99.2,9.7,99.4,10.1,99.6z"/>
			</g>
		</g>
		<g>
			<g>
				<path class="st8" d="M38.7,82.5c0.3,4.4,0.5,8.8,1.1,12.9"/>
			</g>
			<g>
				<path class="st8" d="M39.8,95.4l-1.1-12.9c0.3-1,1.4-3.4,1.1-5.1c-2.4,3.1-6.2,3.4-7.3,6.4c-0.8,2.4-0.3,8.8,0.3,11.2l0.2,2.1
					l5.8,0.2L39.8,95.4"/>
			</g>
			<g>
				<path class="st9" d="M39.8,95.4l-1.1-12.9c0.3-1,1.4-3.4,1.1-5.1c-2.4,3.1-6.2,3.4-7.3,6.4c-0.8,2.4-0.3,8.8,0.3,11.2l0.2,2.1
					l5.8,0.2L39.8,95.4"/>
			</g>
			<g>
				<path class="st8" d="M33.4,89.6c-1.7,0.5-0.2,0.9,0.2,2.7l0.3,5.4l4.9-0.5l-0.9-8.7l0.1-4.8C38,83.7,36.1,88.8,33.4,89.6z"/>
			</g>
			<g>
				<path class="st10" d="M32.4,96.6c0-0.4,0.1-0.7,0.3-1.1h7.7c0.4,0.6,1,1.1,1.8,1.4c0.4,0.2,0.9,0.3,1.4,0.5
					c0.6,0.1,1.2,0.2,1.6,0.6c0.4,0.3,0.5,0.7,0.5,1.1c-0.2,0.2-0.4,0.5-0.8,0.6c-0.6,0.2-1.4,0.3-2,0.3c-0.4,0-0.8,0.1-1.2,0.1
					c-1.1-0.1-2.1-0.2-3.2-0.2c-1.7,0-3.7,0.3-5.4-0.1c-0.1,0-0.2-0.1-0.2-0.1c-0.4-0.2-0.4-0.5-0.4-0.9c-0.1-0.4-0.1-0.8-0.1-1.3
					C32.2,97.2,32.3,96.9,32.4,96.6z"/>
				<path class="st10" d="M44.9,99.6c-0.6,0.2-1.4,0.3-2,0.3c-0.4,0-0.8,0.1-1.2,0.1c-1.1-0.1-2.1-0.2-3.2-0.2
					c-1.7,0-3.7,0.3-5.4-0.1c-0.1,0-0.2-0.1-0.2-0.1c-0.4-0.2-0.4-0.5-0.4-0.9l0,0c0.5,0.3,1.4,0.3,2,0.3c1.8,0.1,3.5-0.1,5.3,0.1
					c1.6,0.2,3.2,0.3,4.8-0.1c0.6-0.2,1.1-0.4,1.1-0.7c0.1,0.2,0.2,0.4,0.2,0.6C45.5,99.2,45.2,99.4,44.9,99.6z"/>
			</g>
		</g>
		<g>
			<g>
				<g>
					<g>
						<path class="st8" d="M80.3,1.6C73-2.1,64.1,0.8,60.4,8.1c-3.7,7.3-0.8,16.2,6.5,19.9s16.2,0.8,19.9-6.5
							C90.4,14.2,87.5,5.3,80.3,1.6z M67.9,25.9c-6.1-3.1-8.6-10.6-5.5-16.7C65.6,3,73.1,0.6,79.2,3.7s8.6,10.6,5.5,16.7
							C81.5,26.6,74,29,67.9,25.9z"/>
						<path class="st11" d="M62.7,18.3c-2-6,1.3-12.4,7.3-14.4s12.4,1.3,14.4,7.3s-1.3,12.4-7.3,14.4S64.7,24.3,62.7,18.3z"/>
					</g>
					<path class="st12" d="M67.4,29.7l-2.3-1.2c-0.4-0.2-0.5-0.6-0.3-1l0,0c0.2-0.4,0.6-0.5,1-0.3l2.3,1.2c0.4,0.2,0.5,0.6,0.3,1
						l0,0C68.2,29.8,67.8,29.9,67.4,29.7z"/>
					<path class="st8" d="M62.9,39.7c0.8-1.8,1.6-3.5,2.4-5.3s1.5-3.6,2.2-5.4c0.1-0.4,0-0.9-0.4-1.1c-0.4-0.3-1.1-0.2-1.4,0.3
						c-1.1,1.6-2.1,3.3-3.1,4.9c-1,1.7-2,3.4-2.9,5.1c-0.8,1.4-1.6,2.9-2.4,4.4c-0.2,0.4-0.1,0.9,0.4,1.2l1.9,1
						c0.4,0.2,0.9,0,1.2-0.4C61.5,42.7,62.2,41.2,62.9,39.7z"/>
				</g>
			</g>
			<g>
				<g>
					<path class="st13" d="M67.6,40.3c-0.9,2.8-2.5,4.7-4.9,5.7c-0.7,0.1-1.4,0.2-2.1,0.1c-0.1,0.1-0.2,0.2-0.3,0.3L55,41.1h0.1
						c0-0.4-0.1-0.7-0.1-1.1c0-1.7,1.8-6.5,4.3-3.4C63.9,32.9,68.7,34.9,67.6,40.3z"/>
					<path class="st8" d="M60.2,46.4L60.2,46.4C60.2,46.5,60.2,46.5,60.2,46.4c-0.1,0.1-0.2,0.1-0.3,0.2c-0.1,0.1-0.3,0.2-0.5,0.4
						c-0.1,0.1-0.3,0.2-0.4,0.3c-0.1,0.1-0.2,0.1-0.3,0.2c-0.1,0.1-0.3,0.2-0.4,0.3l-0.1,0.1c-0.3,0.2-0.7,0.5-1.1,0.7
						c-0.1,0-0.1,0.1-0.2,0.1c-3.9,2.5-8.8,4.9-10.4,5.5c-2.6,0.9-2.4,1.2-4.8,2.4c-0.7-3.1-1-2.6-0.7-5.7c0-0.2,0.4-2.1,0.8-3.4
						c0.1-0.2,0.8-1.8,1-1.8c2.1-0.3,6.5-2.3,9.8-3.6l0,0l0,0c0.1,0,0.2-0.1,0.4-0.1c0.7-0.3,1.4-0.5,1.9-0.7L60.2,46.4z"/>
					<path class="st9" d="M57.9,45.6l1.3,1.2l0,0l0,0c0,0-0.1,0.1-0.2,0.2c-0.1,0.1-0.3,0.2-0.5,0.3c-0.1,0.1-0.3,0.2-0.4,0.3
						c-0.1,0.1-0.2,0.1-0.2,0.2c-0.1,0.1-0.3,0.2-0.4,0.3l-0.1,0.1c-0.3,0.2-0.7,0.4-1,0.6c-0.1,0-0.1,0.1-0.2,0.1
						c-3.7,2.2-8.3,4.4-9.9,4.9c-2.5,0.8-2.2,1-4.6,2.2c0,0-0.7-1.3,0-1.9S47.8,53.5,57.9,45.6z"/>
				</g>
				<path class="st7" d="M60.2,46.4L60.2,46.4C60.2,46.5,60.2,46.5,60.2,46.4c-0.1,0.1-0.2,0.1-0.3,0.2c-0.1,0.1-0.3,0.2-0.5,0.4
					c-0.3,0.2-0.7,0.5-1.1,0.8l-0.1,0.1c-0.3,0.2-0.7,0.5-1.1,0.7c-0.1,0-0.1,0.1-0.2,0.1L52.6,42l0,0l0,0c0.1,0,0.2-0.1,0.4-0.1
					c0.7-0.3,1.9-0.8,1.9-0.7L60.2,46.4z"/>
			</g>
		</g>
		<path class="st8" d="M13.2,45.6c0,0,14.9-4,29.8,0c0.2,2.6,0.3,5.3,0.3,8.1c0,21.8-6.8,39.5-15.2,39.5S12.9,75.5,12.9,53.7
			C12.9,50.9,13,48.2,13.2,45.6"/>
		<polygon class="st9" points="28.7,80.6 27.3,90.6 28.5,90.6 29.9,80.7 		"/>
		<path class="st13" d="M29,83.2c2.7,0.6,5.6,0.7,8.5,0.3c0.7-0.1,1.4-0.2,2.1-0.4c0.3-0.1,0.7-0.2,1-0.2l0.6-0.2l0.4-0.2
			c1.2-0.5,2.3-1.1,3.3-2c2-1.7,3.6-4.8,6.3-7.2c0.3-0.3,0.7-0.6,1-0.9l0.5-0.4c0.2-0.2,0.4-0.3,0.6-0.4c0.8-0.5,1.6-0.9,2.5-1.2
			c1.7-0.6,3.5-1,5.2-1c1.8,0,3.5,0.2,5.2,0.9c1.7,0.6,3.2,1.7,4.4,2.9c1.2,1.2,2.2,2.6,2.8,4.3c0.6,1.7,0.5,3.7-0.4,5.3
			c-0.9,1.6-2.3,2.7-3.9,3.3c-1.6,0.6-3.3,0.9-5,0.5c-1.7-0.3-3.1-1.6-3.7-3.1c-0.6-1.6-0.5-3.2-0.1-4.8c-0.2,1.6-0.2,3.2,0.5,4.7
			c0.6,1.4,2,2.4,3.5,2.6c3,0.4,6.2-1.2,7.5-3.8c0.6-1.3,0.6-2.7,0-4c-0.5-1.3-1.5-2.4-2.6-3.4c-2.2-2-5.1-2.7-8-2.3
			c-1.4,0.2-2.8,0.6-4.1,1.2s-2.2,1.4-3.2,2.5c-1,1-1.7,2.3-2.6,3.6c-0.8,1.3-1.8,2.8-3,4.2c-1.3,1.4-2.8,2.6-4.5,3.4L43,87.6
			l-0.5,0.2c-0.5,0.2-0.9,0.3-1.3,0.5c-0.8,0.3-1.7,0.5-2.6,0.7c-3.4,0.8-7,1.1-10.6,0.6L29,83.2z"/>
		<g>
			<g>
				<g>
					<g>
						<rect x="11.2" y="57.6" class="st15" width="2.7" height="23.1"/>
						<path class="st15" d="M19,69.2c0,6.4-2.3,11.5-5.2,11.5S9,75.5,9,69.2c0-6.4,1.9-11.5,4.8-11.5C16.7,57.6,19,62.8,19,69.2z"/>
						<path class="st16" d="M16.5,69.2c0,6.4-2.3,11.5-5.2,11.5s-5.2-5.2-5.2-11.5c0-6.4,2.3-11.5,5.2-11.5
							C14.2,57.6,16.5,62.8,16.5,69.2z"/>
						<path class="st17" d="M14.4,68.9c0,4.9-0.9,8.9-2.9,8.9s-4.1-4-4.1-8.9S9,60.1,11,60.1c0.5,0,1,0,1.8,0.8
							C14.1,62.2,14.4,65.2,14.4,68.9z"/>
						<path class="st15" d="M15.2,69.2c0,4.8-1.6,8.7-3.5,8.7S8.2,74,8.2,69.2s1.6-8.7,3.5-8.7C13.7,60.5,15.2,64.4,15.2,69.2z"/>
						<g>
							<g id="Coin_Gecko_AI_11_">
								<path class="st18" d="M14,66.2c-0.3-0.2-0.6-0.4-0.9-0.7c0-0.2-0.1-0.4-0.2-0.6c-0.2-0.4-0.6-0.4-0.9-0.2
									c-0.3-0.2-0.7-0.2-1-0.1c-1.4,0.9-1.7,2.4-1.7,4.2l0,0l0,0l0,0c-0.1,2-0.1,3-0.5,4.7c0.8,3.1,2.3,4.8,3.8,4.1h0.1l0,0l0,0
									c-0.2-2.5,0.8-4.9,1.4-6.2c0.1-0.3,0.3-0.7,0.5-1.1C15.3,68.9,15.4,67.1,14,66.2z"/>
								<path class="st15" d="M14.3,68.8c0,0.2-0.1,0.4-0.2,0.4C14,69.1,14,69,14,68.8s0.1-0.4,0.2-0.4
									C14.2,68.4,14.3,68.6,14.3,68.8z"/>
								<path class="st18" d="M12,64.7c0.2,0,0.9,0.5,1.1,0.8C12.9,64.5,12.4,64.4,12,64.7L12,64.7z"/>
								<path class="st15" d="M12.2,67.1c0,0.9-0.3,1.7-0.7,1.7s-0.7-0.7-0.7-1.7s0.3-1.7,0.7-1.7l0,0
									C11.9,65.5,12.2,66.2,12.2,67.1L12.2,67.1z"/>
								<path class="st18" d="M12,67.1c0,0.6-0.2,1.2-0.5,1.2S11,67.8,11,67.1c0-0.6,0.2-1.2,0.5-1.2l0,0C11.7,66,12,66.5,12,67.1z"
									/>
								<path class="st15" d="M14.9,69.5c-0.2,0.4-0.4,0.7-0.6,0.9c-0.2,0.2-0.5,0.4-0.7,0.6c-0.2,0.1-0.5,0.2-0.8,0.2
									c-0.3-0.1-0.5-0.2-0.7-0.7l0,0c0.2,0.3,0.5,0.4,0.7,0.4s0.5,0,0.7-0.1s0.5-0.3,0.7-0.5C14.4,70.1,14.7,69.9,14.9,69.5
									L14.9,69.5z"/>
							</g>
						</g>
					</g>
				</g>
			</g>
		</g>
		<g>
			<g>
				<path class="st13" d="M0.4,73.4c-0.8-2.9-0.5-5.3,1-7.5C2,65.4,2.5,65,3.1,64.6c0-0.1,0.1-0.3,0.1-0.4l7.3,1.6h-0.1
					c0.2,0.3,0.5,0.6,0.7,0.9c0.9,1.5,2.1,6.4-1.7,5.2C7.6,77.6,2.5,78.5,0.4,73.4z"/>
				<path class="st8" d="M3.3,64.2L3.3,64.2L3.3,64.2c0-0.1,0.1-0.2,0.1-0.3c0.1-0.1,0.1-0.3,0.2-0.6c0.1-0.1,0.1-0.3,0.2-0.5
					c0-0.1,0.1-0.2,0.1-0.3C4,62.4,4,62.2,4.1,62.1c0,0,0-0.1,0.1-0.1c0.2-0.4,0.3-0.8,0.5-1.2c0-0.1,0.1-0.1,0.1-0.2
					c1.9-4.2,4.6-8.9,5.7-10.3c1.7-2.1,1.3-2.3,2.7-4.7c2.3,2.2,2.3,1.6,3.7,4.4c0.1,0.2,0.8,1.9,1.2,3.3c0.1,0.2,0.3,2,0.1,2.1
					c-1.6,1.5-4.2,5.5-6.2,8.4l0,0l0,0c0,0.1-0.1,0.2-0.2,0.3c-0.4,0.6-0.9,1.2-1.2,1.7L3.3,64.2z"/>
				<path class="st9" d="M5.7,63.7l-1.8-0.3l0,0l0,0c0,0,0-0.1,0.1-0.2c0.1-0.1,0.1-0.3,0.2-0.5c0.1-0.1,0.1-0.3,0.2-0.4
					c0-0.1,0.1-0.2,0.1-0.3c0.1-0.1,0.1-0.3,0.2-0.5c0,0,0-0.1,0.1-0.1c0.2-0.3,0.3-0.7,0.5-1.1c0-0.1,0.1-0.1,0.1-0.2
					c1.9-3.9,4.5-8.2,5.6-9.5c1.6-2,1.3-2.1,2.6-4.3c0,0,1.3,0.7,1,1.6S9.8,51.5,5.7,63.7z"/>
			</g>
			<path class="st7" d="M3.3,64.2L3.3,64.2L3.3,64.2c0-0.1,0.1-0.2,0.1-0.3c0.1-0.1,0.1-0.3,0.2-0.6c0.1-0.4,0.3-0.8,0.5-1.3
				c0,0,0-0.1,0.1-0.1c0.2-0.4,0.3-0.8,0.5-1.2c0-0.1,0.1-0.1,0.1-0.2l7.3,3.2l0,0l0,0c0,0.1-0.1,0.2-0.2,0.3
				c-0.4,0.6-1.1,1.6-1.2,1.7L3.3,64.2z"/>
			<g>
				<g id="Coin_Gecko_AI_2_">
					<path class="st13" d="M8.4,63.5c0,0.5-0.4,1-1,1c-0.5,0-1-0.4-1-1c0-0.5,0.4-1,1-1l0,0C8,62.5,8.4,63,8.4,63.5z"/>
					<path class="st19" d="M8.4,63.5c0,0.5-0.4,0.9-0.9,0.9S6.6,64,6.6,63.5s0.4-0.9,0.9-0.9l0,0C8,62.6,8.4,63,8.4,63.5z"/>
					<path class="st13" d="M7.9,63.2c-0.1,0-0.1,0-0.2-0.1c0,0,0,0-0.1-0.1c0,0-0.1,0-0.2,0s-0.2,0-0.2,0c-0.3,0.1-0.4,0.3-0.4,0.4
						l0,0l0,0l0,0c0,0.2,0,0.4-0.1,0.6c0.2,0.3,0.5,0.5,0.9,0.4l0,0l0,0l0,0c0-0.3,0.2-0.5,0.3-0.7L8,63.6
						C8.2,63.5,8.3,63.3,7.9,63.2z"/>
					<path class="st5" d="M7.5,62.7c0.1,0,0.1,0,0.2,0s0.1,0,0.2,0.1C8,62.8,8,62.9,8,62.9L8.1,63l0.1,0.1c0,0,0.1,0.1,0.1,0.2
						c0,0.1,0.1,0.2,0,0.3l0,0c0-0.1,0-0.2-0.1-0.3c0-0.1,0-0.1-0.1-0.2L8,63l-0.1-0.1c0,0-0.1-0.1-0.2-0.1S7.6,62.8,7.5,62.7
						C7.6,62.7,7.5,62.7,7.5,62.7L7.5,62.7z"/>
					<path class="st5" d="M8,63.5L8,63.5C7.9,63.5,7.9,63.5,8,63.5C7.9,63.4,7.9,63.4,8,63.5C8,63.4,8,63.4,8,63.5z"/>
					<path class="st20" d="M7.5,63c0,0,0.2,0.1,0.3,0.1C7.7,63,7.6,63,7.5,63L7.5,63z"/>
					<path class="st5" d="M7.5,63.3c0,0.1-0.1,0.2-0.2,0.2s-0.2-0.1-0.2-0.2c0-0.1,0.1-0.2,0.2-0.2l0,0C7.4,63.1,7.5,63.2,7.5,63.3
						L7.5,63.3z"/>
					<path class="st21" d="M7.5,63.3C7.5,63.4,7.4,63.4,7.5,63.3c-0.2,0.1-0.2,0-0.2,0H7.5L7.5,63.3C7.4,63.2,7.5,63.2,7.5,63.3z"/>
					<path class="st21" d="M8.1,63.5c0,0-0.1,0.1-0.2,0.1c-0.1,0-0.1,0-0.2,0.1c-0.1,0-0.1,0-0.2,0s-0.1,0-0.2-0.1l0,0
						c0,0,0.1,0,0.2,0s0.1,0,0.2,0s0.1,0,0.2-0.1C8,63.6,8.1,63.6,8.1,63.5L8.1,63.5z"/>
				</g>
			</g>
			<g>
				<g id="Coin_Gecko_AI_1_">
					<path class="st13" d="M57.4,44.9c0,0.5-0.4,1-1,1c-0.5,0-1-0.4-1-1s0.4-1,1-1l0,0C57,43.9,57.4,44.3,57.4,44.9z"/>
					<path class="st19" d="M57.3,44.9c0,0.5-0.4,0.9-0.9,0.9s-0.9-0.4-0.9-0.9s0.4-0.9,0.9-0.9l0,0C56.9,44,57.3,44.4,57.3,44.9z"/>
					<path class="st13" d="M56.9,44.6c-0.1,0-0.1,0-0.2-0.1c0,0,0,0-0.1-0.1c0,0-0.1,0-0.2,0c-0.1,0-0.2,0-0.2,0
						c-0.3,0.1-0.4,0.3-0.4,0.4l0,0l0,0l0,0c0,0.2,0,0.4-0.1,0.6c0.2,0.3,0.5,0.5,0.9,0.4l0,0l0,0l0,0c0-0.3,0.2-0.5,0.3-0.7L57,45
						C57.2,44.9,57.2,44.7,56.9,44.6z"/>
					<path class="st5" d="M56.5,44c0.1,0,0.1,0,0.2,0c0.1,0,0.1,0,0.2,0.1c0.1,0,0.1,0.1,0.1,0.1l0.1,0.1l0.1,0.1
						c0,0,0.1,0.1,0.1,0.2c0,0.1,0.1,0.2,0,0.3l0,0c0-0.1,0-0.2-0.1-0.3c0-0.1,0-0.1-0.1-0.2L57,44.3l-0.1-0.1c0,0-0.1-0.1-0.2-0.1
						C56.6,44.1,56.6,44.1,56.5,44C56.6,44.1,56.5,44.1,56.5,44L56.5,44z"/>
					<path class="st5" d="M57,44.8C57,44.9,57,44.9,57,44.8C56.9,44.9,56.9,44.9,57,44.8C56.9,44.8,56.9,44.8,57,44.8L57,44.8z"/>
					<path class="st20" d="M56.4,44.4c0,0,0.2,0.1,0.3,0.1C56.7,44.4,56.5,44.4,56.4,44.4L56.4,44.4z"/>
					<path class="st5" d="M56.5,44.7c0,0.1-0.1,0.2-0.2,0.2c-0.1,0-0.2-0.1-0.2-0.2c0-0.1,0.1-0.2,0.2-0.2l0,0
						C56.4,44.5,56.5,44.6,56.5,44.7L56.5,44.7z"/>
					<path class="st21" d="M56.4,44.7C56.4,44.8,56.3,44.8,56.4,44.7c-0.2,0.1-0.2,0-0.2,0C56.2,44.6,56.3,44.6,56.4,44.7L56.4,44.7
						C56.4,44.6,56.4,44.6,56.4,44.7z"/>
					<path class="st21" d="M57.1,44.9c0,0-0.1,0.1-0.2,0.1c-0.1,0-0.1,0-0.2,0.1c-0.1,0-0.1,0-0.2,0c-0.1,0-0.1,0-0.2-0.1l0,0
						c0,0,0.1,0,0.2,0c0.1,0,0.1,0,0.2,0c0.1,0,0.1,0,0.2-0.1C57,45,57.1,45,57.1,44.9L57.1,44.9z"/>
				</g>
			</g>
		</g>
		<path class="st9" d="M15.3,46.4c0,0,14,1.1,26,0.1C38.3,48,25.4,50.4,15.3,46.4z"/>
	</g>
</g>
</svg>
